<?xml version="1.0" encoding="utf-8"?>
<!-- Generator: Adobe Illustrator 14.0.0, SVG Export Plug-In . SVG Version: 6.00 Build 43363)  -->
<!DOCTYPE svg PUBLIC "-//W3C//DTD SVG 1.1//EN" "http://www.w3.org/Graphics/SVG/1.1/DTD/svg11.dtd">
<svg version="1.1" id="圖層_1" xmlns="http://www.w3.org/2000/svg" xmlns:xlink="http://www.w3.org/1999/xlink" x="0px" y="0px"
	 width="841.89px" height="595.28px" viewBox="0 0 841.89 595.28" enable-background="new 0 0 841.89 595.28" xml:space="preserve">
<g>
	<path fill-rule="evenodd" clip-rule="evenodd" d="M401.886,570.199c-18.331,0-36.662,0-54.993,0c-13.585-14.367,7.278-45,1-57.993
		c-4.898,10.767-5.464,25.865-8.999,37.995c-20.342-8.321-47.226-10.101-68.992-16.997c-10.237-36.095,25.6-40.244,30.997-63.992
		c18.544-81.61-24.05-216.212,19.997-267.967c22.364,47.983,5.14,137.069,11.999,202.975
		c15.454-95.604-17.469-247.146,40.995-302.962c60.896,51.757,27.521,197.784,43.995,293.963
		c4.713-64.61-11.95-150.599,13.999-193.976c36.715,61.271,11.181,184.795,21.997,271.966c12.17,18.493,37.093,24.233,31.996,59.993
		c-24.095,5.916-54.419,10.887-75.991,15.997c-2.458-12.874-1.938-28.725-9.999-35.995
		C397.365,526.144,416.646,557.351,401.886,570.199z M373.889,258.238c-17.525,20.417-30.823,67.38-18.998,100.988
		c-1.595-40.257,3.981-73.343,18.998-96.988c16.056,22.94,20.825,57.166,20.997,95.988
		C406.606,325.045,391.646,278.299,373.889,258.238z M361.891,312.231c7.501-3.914,16.459-4.467,23.997,0
		C382.229,302.251,365.496,302.524,361.891,312.231z M395.886,432.216c5.866-11.801,2.67-37.987,2-52.993
		C392.594,391.599,394.818,416.813,395.886,432.216z M353.892,430.217c-2.073-16.354,4.187-40.181-3-48.994
		C353.382,397.663,345.998,421.181,353.892,430.217z M353.892,495.208c-2.391-18.939,4.953-47.614-4-59.992
		C352.283,454.156,344.939,482.83,353.892,495.208z M396.886,494.209c4.9-12.204,1.418-40.281,1-56.993
		C392.669,450.087,393.925,479.792,396.886,494.209z"/>
	<path fill-rule="evenodd" clip-rule="evenodd" d="M457.878,570.199c-10.998,0-21.997,0-32.996,0c0.154-7.179-0.595-15.261,1-20.998
		c9.719-1.696,20.295-7.59,29.996-5.999C458.239,550.509,455.456,562.957,457.878,570.199z"/>
	<path fill-rule="evenodd" clip-rule="evenodd" d="M325.895,570.199c-9.999,0-19.998,0-29.996,0c1.011-8.987-0.469-20.467,3-26.997
		c9.745,1.587,19.805,2.859,26.997,6.999C325.895,556.867,325.895,563.533,325.895,570.199z"/>
</g>
</svg>
