<?xml version="1.0" encoding="utf-8"?>
<!-- Generator: Adobe Illustrator 14.0.0, SVG Export Plug-In . SVG Version: 6.00 Build 43363)  -->
<!DOCTYPE svg PUBLIC "-//W3C//DTD SVG 1.1//EN" "http://www.w3.org/Graphics/SVG/1.1/DTD/svg11.dtd">
<svg version="1.1" id="圖層_1" xmlns="http://www.w3.org/2000/svg" xmlns:xlink="http://www.w3.org/1999/xlink" x="0px" y="0px"
	 width="1011.027px" height="739.247px" viewBox="0 0 1011.027 739.247" enable-background="new 0 0 1011.027 739.247"
	 xml:space="preserve">
<path fill-rule="evenodd" clip-rule="evenodd" d="M560.932,639.53c-16.725,0-33.449,0-50.175,0c-1.053-2.49,3.205-0.129,2.151-2.619
	c-3.85-2.156-4.879-6.891-9.318-8.51c-4.354,3.225-11.086,4.277-15.052,7.855c2.016-0.096,2.067,1.604,2.15,3.273
	c-7.167,0-14.335,0-21.503,0c24.978-12.973,50.851-25.129,72.394-41.236c0.825-60.34,3.775-125.717,1.435-184.582
	c-24.895,75.449-50.879,149.9-75.262,225.818c-7.885,0-15.77,0-23.654,0c34.808-97.541,64.004-202.545,103.932-295.201
	c4.105-9.525,1.589-25.852,4.301-35.346c16.459-57.621,83.952-122.131,170.591-104.072c26.086,5.437,45.382,24.179,55.192,43.2
	c3.269,6.337,3.895,14.438,8.602,22.909c5.827,10.489,19.396,20.935,28.67,31.418c56.959,64.38,111.904,125.771,167.009,192.436
	c15.186,18.373,35.225,30.764,26.521,67.42c-5.621-10.455-12.106-15.076-27.237-9.164c6.705,29.223,14.659,57.305,21.503,86.4
	c-6.45,0-12.902,0-19.353,0c-5.438-29.508-12.212-57.795-17.919-87.055c-16.807,0.293-32.664-0.281-48.741-0.654
	c11.391,30.396,25.502,58.311,37.989,87.709c-9.796,0-19.592,0-29.389,0c-11.882-30.168-24.765-59.42-37.271-89.02
	c-73.966-4.238-138.361-17.213-189.944-41.891c-37.731,46.709-81.842,87.592-137.62,117.818
	C560.932,630.802,560.932,635.165,560.932,639.53z M689.951,223.239c5.318-1.063,13.818-0.362,17.919-0.655
	c1.087-4.245,3.021-7.714,4.302-11.782c-6.037-1.905-14.906-1.225-22.938-1.309C689.567,213.989,690.31,218.11,689.951,223.239z
	 M660.563,215.384c3.154,2.574,4.791,6.534,6.451,10.473c5.982,2.254,9.757-2.167,16.485-1.309
	c0.529-5.283-1.165-8.537-0.717-13.746C674.365,211.406,666.488,212.503,660.563,215.384z M712.887,223.239
	c3.699,1.204,6.269,3.439,11.469,3.272c2.568-4.854,9.098-6.092,12.185-10.473c-4.871-2.534-11.429-3.527-17.919-4.582
	C718.621,217.129,714.831,219.34,712.887,223.239z M634.042,227.166c4.858,1.891,7.204,6.076,11.469,8.509
	c5.518-2.379,11.592-4.25,16.485-7.2c-4.297-3.276-6.107-8.823-11.468-11.127C646.209,221.695,637.259,221.812,634.042,227.166z
	 M727.223,229.129c2.282,2.549,7.125,5.892,10.681,6.216c5.798,0.528,11.092-3.213,17.99-3.598
	c-2.596-5.484-8.91-7.572-12.186-12.436C735.792,220.374,732.592,225.742,727.223,229.129z M747.292,301.129
	c4.388-41.58-15.936-78.215-56.625-73.309c-62.397,7.524-103.615,57.49-106.799,119.127c10.843,59.918,51.311,92.78,96.047,121.745
	C710.922,423.075,740.131,368.987,747.292,301.129z M611.106,241.566c9.48,10.407,20.909,5.101,28.671-3.273
	c-5.054-2.367-9.855-4.963-14.335-7.854C621.119,234.564,615.332,237.352,611.106,241.566z M739.408,237.639
	c1.59,4.221,5.438,6.38,6.452,11.127c8.212,0.517,14.644-0.591,20.786-1.964c-2.289-3.583-4.171-7.537-6.451-11.127
	C752.339,235.483,747.539,238.082,739.408,237.639z M593.904,260.548c4.69,1.607,9.554,3.057,13.617,5.236
	c3.801-5.039,8.854-8.934,12.902-13.746c-5.22-1.779-9.47-4.442-15.769-5.236C602.725,252.894,594.847,253.555,593.904,260.548z
	 M752.31,266.438c6.693-0.433,15.286,0.868,20.786-0.654c-1.712-4.545-3.082-9.404-4.3-14.4c-6.929,0-13.858,0-20.787,0
	C749.52,256.332,752.012,260.384,752.31,266.438z M578.851,281.493c5.271,0.858,10.662,1.61,15.053,3.273
	c3.01-5.76,8.197-9.533,10.034-16.364c-6.822,0.12-9.377-3.655-15.769-3.927C586.137,271.129,579.97,274.006,578.851,281.493z
	 M754.46,284.766c7.598,0.917,13.627,3.266,21.503,3.927c0.6-6.657-2.541-9.897-1.434-17.019
	c-4.943-2.467-14.668-0.569-20.786-1.963C753.567,275.109,755.006,279.032,754.46,284.766z M568.817,300.475
	c4.749,1.336,10.407,1.841,16.485,1.963c1.761-5.374,4.272-10.061,6.451-15.054C575.679,284.961,570.425,289.148,568.817,300.475z
	 M752.31,308.33c8.084,0.037,14.08,1.979,22.22,1.963c-1.099-7.33,2.163-10.679,1.434-17.672
	c-7.131-1.125-13.857-2.618-21.503-3.273C754.603,296.46,754.074,302.958,752.31,308.33z M563.083,324.693
	c6.26-0.481,10.299,1.067,16.485,0.654c0.017-7.126,4.322-13.289,3.584-18.982c-5.496,0-10.99,0-16.486,0
	C565.451,312.457,563.519,317.892,563.083,324.693z M749.443,328.621c7.438,0.407,13.933,1.677,20.786,2.618
	c1.2-5.45,3.05-10.307,2.867-17.019c-8.153,0.245-13.095-2.441-20.786-2.618C751.999,317.864,749.871,322.466,749.443,328.621z
	 M715.039,487.675c43.938,22.275,100.475,33.047,163.424,37.963c-31.104-69.994-58.833-143.074-91.031-212.072
	C778.799,385.753,744.32,434.343,715.039,487.675z M562.365,343.675c5.496,0,10.991,0,16.486,0c0-5.019,0-10.037,0-15.055
	c-6.166,0.395-11.243-0.206-15.769-1.309C561.628,331.656,562.686,338.295,562.365,343.675z M745.142,350.22
	c7.93-0.259,12.136,2.882,19.353,3.273c1.48-5.631,3.892-10.411,4.302-17.019c-7.005-1.241-13.36-3.073-20.787-3.927
	C748.269,339.549,744.998,343.325,745.142,350.22z M905.699,527.603c25.027-0.492,51.028-0.094,72.395-3.928
	C924.408,462.083,874.11,397.394,820.404,335.82C849.161,399.449,877.114,463.815,905.699,527.603z M564.515,362.657
	c5.03-0.643,13.031,1.427,15.77-1.309c-0.489-1.967-1.526-9.069-1.434-13.746C563.428,343.805,559,352.439,564.515,362.657z
	 M738.691,370.511c6.051,1.456,11.584,3.386,18.637,3.928c2.233-5.598,3.82-11.784,6.451-17.019
	c-7.396-0.665-14.162-1.904-20.07-3.927C741.915,359.055,739.809,364.332,738.691,370.511z M569.533,381.638
	c3.099-2.406,10.49-0.894,15.77-1.309c-0.499-5.217-2.765-8.821-3.584-13.745c-5.495,0-10.99,0-16.486,0
	C566.024,372.188,567.596,377.081,569.533,381.638z M731.524,389.494c5.745,1.734,12.179,2.842,18.636,3.927
	c1.436-5.017,4.341-8.69,4.301-15.055c-7.332,0.367-10.712-2.872-17.92-2.618C734.874,380.334,733.122,384.843,731.524,389.494z
	 M570.966,384.256c0.186,6.158,4.034,8.971,5.018,14.4c6.95,0.237,11.603-1.622,17.92-1.964c-2.169-4.347-5.017-8.073-6.452-13.091
	C582.448,384.269,576.847,384.39,570.966,384.256z M560.932,584.548c38.057-28.082,72.064-59.865,101.781-95.564
	c-45.86-23.139-81.589-55.531-103.933-100.145C561.742,452.026,559.555,519.913,560.932,584.548z M723.356,411.558
	c7.441-0.467,11.057,4.316,17.486,4.771c1.819-6.846,5.967-11.568,7.167-18.981c-7.297,0.117-11.101-2.954-18.636-2.618
	C728.683,402.39,724.391,404.212,723.356,411.558z M579.568,402.585c1.449,5.002,5.058,8.035,6.451,13.09
	c6.659,2.283,10.866-2.51,17.919-1.963c-1.162-5.049-5.737-6.979-6.451-12.438C591.261,399.189,586.458,403.185,579.568,402.585z
	 M591.753,422.22c2.32,4.209,5.483,7.646,9.317,10.473c4.418-2.074,9.703-3.357,14.335-5.236c-1.128-4.859-6.617-5.738-7.167-11.127
	C601.805,417.437,597.332,420.333,591.753,422.22z M720.748,417.013c-3.769,2.586-7.408,10.547-8.576,16.336
	c6.256,1.049,11.623,2.912,18.635,3.271c1.828-6.186,6.074-10.162,7.885-16.363C730.151,417.046,725.135,414.001,720.748,417.013z
	 M603.938,436.62c1.729,3.221,5.589,4.496,7.168,7.855c7.824,0.816,9.292-4.17,16.486-3.928
	C624.378,428.882,612.042,428.04,603.938,436.62z M701.419,453.638c6.235,1.029,11.741,5.617,18.636,3.928
	c1.182-6.557,6.376-9.449,7.168-16.363c-5.215-1.348-11.306-1.895-16.486-3.273c-0.04-0.398-0.106-0.773-0.716-0.654
	C706.705,442.319,703.285,447.269,701.419,453.638z M616.84,449.712c6.707,8.684,19.298,12.65,28.671,3.271
	C638.293,445.042,626.643,441.155,616.84,449.712z M634.042,463.456c6.598,7.855,18.515,7.922,27.954,1.965
	c-4.281-3.291-8.491-6.646-13.618-9.164C644.607,459.577,638.606,460.86,634.042,463.456z M687.083,473.274
	c5.294,2.803,10.356,5.816,15.769,8.51c4.067-6.322,8.956-11.895,12.187-18.982C700.115,454.38,692.334,461.993,687.083,473.274z
	 M654.112,474.585c2.448,5.4,9.132,6.934,14.336,9.816c1.841-4.209,6.642-5.717,7.168-11.127
	C668.613,466.202,661.367,470.612,654.112,474.585z M675.616,488.983c6.47,1.51,10.055,5.654,16.486,7.201
	c0.558-4.184,6.823-5.525,5.017-9.818C687.93,480.874,680.055,477.548,675.616,488.983z M657.696,510.585
	c4.95,3.115,10.302,5.865,17.202,7.199c1.93-6.967,9.944-8.375,10.752-16.363c-6.795-0.777-8.934-5.807-15.052-7.201
	C667.035,500.349,661.871,505.015,657.696,510.585z M704.287,502.075c0.883,0.938,2.465,1.24,4.3,1.309
	c1.685-2.826,5.977-3.27,7.885-5.891C711.868,490.466,706.951,498.169,704.287,502.075z M716.471,506.657
	c4.067,2.613,10.354,3.199,14.335,5.891c2.15-2.619,5.81-3.859,7.885-6.545c-5.043-2.377-10.977-3.939-15.77-6.547
	C721.791,502.786,717.808,503.513,716.471,506.657z M738.691,514.511c4.832,2.352,10.838,3.631,16.486,5.236
	c2.123-2.205,5.105-3.629,6.45-6.545C754.388,510.438,741.856,505.034,738.691,514.511z M762.344,521.712
	c6.629,2.674,15.244,3.533,22.22,5.891c2.943-1.24,3.035-5.084,4.302-7.855C779.083,518.761,766.506,511.597,762.344,521.712z
	 M639.777,528.911c5.765,2.371,10.826,5.387,16.486,7.855c4.113-4.971,9.163-9.088,12.9-14.4
	c-6.011-2.146-12.923-3.471-18.635-5.891C648.918,522.423,642.333,523.827,639.777,528.911z M793.166,529.565
	c7.616,0.188,14.097,4.363,22.22,1.965c-0.275-3.111,1.517-4.721,0-7.201c-8.87,0.684-13.427-2.574-21.502-2.617
	C793.83,524.499,792.683,526.29,793.166,529.565z M820.404,534.802c8.123,0.438,14.068,2.863,22.937,2.619
	c0.481-3.051,2.229-4.947,1.434-9.164c-9.601,0.695-15.415-2.068-24.37-1.963C820.404,529.13,820.404,531.966,820.404,534.802z
	 M851.941,539.384c8.149-0.895,11.922,2.205,20.069,1.309c1.103-2.266,0.635-5.967,0.718-9.162
	c-6.614-1.16-14.161-1.469-21.504-1.965C851.554,532.755,850.474,537.233,851.941,539.384z M975.226,530.22
	c1.055,3.402,0.665,8.121,0.717,12.438c5.495,0,10.991,0,16.485,0c-2.6-5.045-6.958-8.482-10.034-13.092
	C979.967,529.749,978.279,530.606,975.226,530.22z M947.272,532.185c0,2.4,0,4.799,0,7.199c7.176,1.738,13.09,4.629,22.937,3.928
	c-0.848-4.244,2.014-11.875-2.15-13.092C963.696,533.282,950.874,530.401,947.272,532.185z M879.895,541.349
	c3.21-0.969,2.202,1.916,5.018,1.309c0.221-4.566-3.336-5.68-2.866-10.473c-1.728,0.268-1.559-1.195-3.584-0.654
	C877.37,536.237,880.364,537.212,879.895,541.349z M623.291,544.62c6.469,1.73,9.279,6.799,15.052,9.164
	c3.696-4.48,8.827-7.648,12.187-12.436c-4.354-3.66-10.768-5.441-15.053-9.164C632.346,537.181,626.614,539.8,623.291,544.62z
	 M917.167,539.384c4.615,4.295,13.861,4.361,23.654,3.928c0-3.709,0-7.418,0-11.127c-7.885,0-15.77,0-23.654,0
	C917.167,534.585,917.167,536.983,917.167,539.384z M606.088,560.329c4.252,3.1,8.982,5.762,12.902,9.164
	c4.722-4.197,10.595-7.344,14.335-12.436C623.61,546.712,612.895,548.874,606.088,560.329z M586.019,575.384
	c2.508,4.691,9.47,5.316,12.185,9.818c5.68-3.322,11.263-6.732,15.052-11.781c-4.639-2.963-8.256-6.861-13.617-9.164
	C595.991,568.782,591.007,572.085,586.019,575.384z M567.382,591.093c8.117,10.412,21.574,5.922,27.238-3.928
	C585.538,576.552,574.426,581.124,567.382,591.093z M560.932,610.729c5.423-1.813,9.521-4.834,12.901-8.51
	c-4.618-2.545-7.061-7.078-12.901-8.508C560.932,599.384,560.932,605.058,560.932,610.729z M530.11,614.657
	c3.695,3.172,7.125,6.584,12.186,8.508c0-5.236,0-10.473,0-15.709C537.678,609.349,533.616,611.749,530.11,614.657z
	 M509.324,627.093c2.841,2.643,6.269,4.748,7.884,8.51c6.271-2.129,10.626-6.008,17.203-7.855
	c-1.777-5.141-5.874-8.162-10.753-10.473C520.224,621.774,512.076,621.97,509.324,627.093z"/>
<path fill-rule="evenodd" clip-rule="evenodd" d="M422.914,630.568c-45.981-2.259-87.478-9.405-120.425-25.874
	c20.222-45.101,44.542-86.446,48.481-146.479c0.355,0.742-1.73-34.596-2.066-35.191c-3.861-6.857-4.625-13.543-7.322-18.681
	c-8.097-15.422-23.352-30.304-43.264-33.951c-66.132-12.113-114.835,43.49-125.211,91.722c-1.71,7.947,0.777,21.378-1.985,29.396
	c-26.86,77.998-45.167,165.864-67.981,247.737c5.958-0.258,11.918-0.516,17.878-0.773c15.709-63.635,32.683-126.108,48.796-189.371
	c3.878,48.646,3.99,102.854,5.528,152.824c-15.707,14.037-34.827,24.945-53.241,36.5c5.418-0.235,10.835-0.47,16.253-0.704
	c-0.123-1.379-0.223-2.783-1.743-2.639c2.87-3.091,7.92-4.184,11.096-6.994c3.413,1.195,4.36,5.079,7.347,6.738
	c0.886,2.027-2.417,0.212-1.531,2.238c12.642-0.546,25.283-1.094,37.924-1.642c-0.157-3.612-0.313-7.224-0.469-10.835
	c41.077-26.843,72.953-62.125,99.799-102.02c38.217,17.961,84.952,26.632,138.129,28.279
	C426.619,644.17,424.517,637.438,422.914,630.568z M305.203,579.608c-5.151,1.624-9.476-1.994-14.226-2.641
	c1.181-5.333,3.589-9.541,5.915-13.826c0.456-0.117,0.52,0.19,0.564,0.519c3.965,0.973,8.589,1.225,12.578,2.17
	C309.684,571.579,305.861,574.143,305.203,579.608z M197.383,508.827c0.796,4.049,2.637,6.959,3.202,11.262
	c-3.976,0.514-9.617-0.495-11.872,1.599c-1.627-3.71-2.99-7.708-3.79-12.32C189.076,509.188,193.23,509.007,197.383,508.827z
	 M184.24,506.14c-4.536-8.276-1.498-15.567,10.296-12.931c0.098,3.876,1.135,9.72,1.576,11.331
	C194.14,506.895,188.019,505.443,184.24,506.14z M202.327,522.726c1.264,4.105,3.55,7.098,5.345,10.625
	c-4.762,0.49-8.213,2.181-13.474,2.212c-0.938-4.463-3.947-6.665-4.308-11.756C194.339,523.726,198.568,523.442,202.327,522.726z
	 M210.545,537.026c0.734,4.494,4.262,5.943,5.321,10.083c-5.351-0.223-8.359,3.883-13.474,2.211
	c-1.234-4.138-4.071-6.531-5.345-10.623C202.276,538.969,205.764,535.503,210.545,537.026z M219.21,549.135
	c0.608,4.442,4.789,4.99,5.816,8.976c-3.435,1.707-7.383,2.941-10.648,4.804c-2.999-2.215-5.513-4.957-7.417-8.364
	C211.109,552.806,214.388,550.262,219.21,549.135z M234.706,568.548c-5.446,0.035-6.377,4.21-12.32,3.791
	c-1.314-2.729-4.277-3.659-5.699-6.268C222.505,558.703,231.859,558.997,234.706,568.548z M248.695,578.254
	c-6.748,8.07-16.407,5.198-21.788-1.769C234.011,569.082,242.956,571.917,248.695,578.254z M250.979,580.87
	c3.966,1.916,7.268,4.556,10.622,7.14c-6.921,5.239-15.932,5.574-21.199-0.712C243.758,585,248.249,583.742,250.979,580.87z
	 M272.177,594.064c-0.204,4.496-3.779,5.901-5.02,9.444c-4.037-2.216-9.143-3.266-11.187-7.656
	C261.312,592.327,266.63,588.439,272.177,594.064z M198.305,492.505c0.198-51.122,29.563-93.827,76.456-102.096
	c30.579-5.392,47.252,24.267,45.425,58.825c-2.982,56.399-23.122,102.125-44.924,140.896
	C240.412,567.621,208.647,541.744,198.305,492.505z M312.579,561.921c-5.313-0.068-9.437-1.435-14.203-2.099
	c0.675-4.83,3.142-11.538,5.897-13.802c3.208-2.636,7.108-0.28,13.679,2.098C316.806,553.312,313.738,556.741,312.579,561.921z
	 M319.437,544.798c-4.875-0.166-7.78-4.008-13.387-3.378c0.519-6.113,3.698-7.763,3.945-14.124
	c5.684-0.526,8.668,1.893,14.179,1.558C323.533,535.027,320.568,539.072,319.437,544.798z M325.659,525.529
	c-4.919-0.685-9.821-1.392-14.226-2.639c1.042-3.901,2.204-7.692,3.3-11.542c5.438-0.445,8.109,2.124,13.638,1.58
	C328.629,518.196,326.564,521.332,325.659,525.529z M330.397,509.586c-5.351-0.219-9.602-1.636-14.227-2.642
	c0.624-5.151,2.026-9.589,3.183-14.249c4.538,1.479,9.697,2.285,15.31,2.592C332.862,499.706,331.885,504.88,330.397,509.586z
	 M335.064,492.015c-5.469-0.089-8.761-2.551-14.745-2.076c-0.356-5.704,1.981-8.935,1.534-14.721
	c5.645,0.464,10.514,1.772,15.853,2.569C337.633,483.27,335.981,487.306,335.064,492.015z M338.602,473.406
	c-5.214-0.555-10.168-1.394-15.805-1.486c0.103-5.107,1.547-8.989,1.558-14.181c5.819-0.104,9.651,1.956,15.805,1.487
	C340.537,464.775,339.313,468.856,338.602,473.406z M341.102,455.929c-6.153,0.279-10.754-1.131-16.865-0.897
	c1.14-4.504,1.308-9.9,0.945-15.782c5.802,0.291,10.939,1.308,16.37,2.005C342.354,447.02,340.009,449.897,341.102,455.929z
	 M341.412,438.004c-5.977-0.29-10.619-2.038-16.394-2.548c0.207-4.764-1.021-7.963-1.082-12.438
	c4.675,0.955,11.957-0.935,15.782,0.946C339.137,429.895,341.626,432.475,341.412,438.004z M338.424,419.136
	c-4.103,1.44-10.644,0.645-15.688,1.222c-0.442-5.002-2.471-8.274-3.791-12.319c5.237-0.227,10.475-0.453,15.712-0.681
	C335.757,411.452,336.967,415.429,338.424,419.136z M332.868,403.636c-4.593,1.337-9.415,2.465-15.641,2.305
	c-0.937-3.896-3.922-5.557-5.275-8.999c6.161,0.1,9.696-2.207,15.642-2.306C329.446,397.533,331.01,400.745,332.868,403.636z
	 M324.202,391.526c-5.2,0.544-9.067,3.814-13.468,3.566c-2.699-0.152-6.48-2.761-8.296-4.796c3.937-2.979,6.163-7.527,12.109-8.665
	C317.196,385.55,322.044,387.072,324.202,391.526z M295.304,375.951c4.943,0.66,9.936,1.268,13.708,3.206
	c-2.177,3.727-7.067,4.965-8.834,9.067c-3.925,0.308-5.946-1.458-8.786-2.333C292.721,382.6,295.506,380.646,295.304,375.951z
	 M290.405,375.62c-0.822,3.408-2.16,6.344-2.829,9.893c-3.089,0.376-9.539,0.075-13.521,1.128c0.088-4.257-0.622-7.644-1.035-11.354
	C279.094,375.094,285.773,374.24,290.405,375.62z M268.192,376.581c-0.152,4.327,1.245,6.964,1.034,11.354
	c-5.117-0.49-7.811,3.293-12.413,1.623c-1.396-3.206-2.774-6.43-5.251-8.458C255.936,378.522,261.851,377.356,268.192,376.581z
	 M244.047,383.054c4.134,1.732,5.702,6.264,9.066,8.835c-3.593,2.602-8.117,4.349-12.203,6.499
	c-3.311-1.874-5.233-5.262-8.973-6.667C234.178,387.184,240.938,386.793,244.047,383.054z M225.554,394.71
	c3.49,2.247,7.212,4.239,11.116,6.033c-5.566,7.184-14.015,11.949-21.553,3.646C218.16,400.763,222.435,398.266,225.554,394.71z
	 M210.429,408.935c4.789,0.451,8.098,2.517,12.106,3.818c-2.888,4.114-6.567,7.504-9.259,11.799
	c-3.149-1.672-6.878-2.712-10.48-3.889C203.257,414.844,209.189,414.04,210.429,408.935z M198.602,424.101
	c4.841,0.017,6.907,3.058,12.059,2.735c-1.144,5.714-4.929,9.007-6.999,13.873c-3.378-1.233-7.479-1.68-11.495-2.217
	C192.746,432.258,197.304,429.675,198.602,424.101z M202.131,442.946c-1.467,4.204-3.198,8.165-4.336,12.673
	c-4.599,0.097-8.893-0.138-12.531-1.088C186.074,445.104,189.895,441.466,202.131,442.946z M183.849,459.478
	c4.154-0.18,8.307-0.359,12.461-0.539c0.762,4.688-2.272,9.931-2.029,15.828c-4.662,0.543-7.77-0.604-12.484-0.002
	C181.883,469.122,183.149,464.559,183.849,459.478z M181.891,476.933c3.459,0.765,7.318,1.096,11.965,0.567
	c0.18,4.152,0.36,8.306,0.539,12.46c-4.153,0.18-8.307,0.36-12.46,0.54C181.984,486.035,180.947,480.575,181.891,476.933z
	 M158.26,733.605c-1.356-3.061-4.021-4.692-6.264-6.786c1.896-4.331,8.048-4.759,10.483-8.595c3.77,1.752,6.975,4.118,8.502,8.315
	C166.076,728.285,162.924,731.638,158.26,733.605z M167.262,715.846c2.545-2.521,5.529-4.641,8.952-6.358l0.563,13.002
	C172.883,721.063,170.168,718.351,167.262,715.846z M180.844,527.998c18.486,36.197,46.651,61.839,82.143,79.49
	c-21.182,30.521-45.748,57.94-73.507,82.429C186.124,636.464,185.344,580.202,180.844,527.998z M190.417,711.588
	c-0.204-4.695-0.406-9.391-0.609-14.087c4.466,0.993,6.475,4.666,10.056,6.62C197.441,707.275,194.451,709.909,190.417,711.588z
	 M194.589,695.123c4.967-8.481,13.202-12.629,20.447-4.143C211.108,699.318,201.097,703.476,194.589,695.123z M217.675,689.238
	c-2.214-3.636-7.498-3.926-9.562-7.728c3.652-2.894,7.301-5.79,9.895-9.654c4.135,1.73,7.009,4.839,10.621,7.14
	C225.947,683.299,221.849,686.304,217.675,689.238z M232.824,675.557c-3.085-2.688-6.755-4.735-10.081-7.163
	c4.734-9.704,12.755-11.844,20.47-3.599C240.568,669.132,236.242,671.928,232.824,675.557z M246.888,661.922
	c-4.448-1.77-6.754-5.872-11.705-7.094c2.338-4.098,6.578-6.453,8.764-10.691c3.372,2.941,8.283,4.207,11.706,7.094
	C253.286,655.302,249.521,658.093,246.888,661.922z M259.823,647.251c-4.365-1.858-8.299-4.189-12.742-5.963
	c1.75-4.292,6.677-5.67,7.681-10.646c4.404,1.816,9.676,2.687,14.297,4.267C266.424,639.429,262.754,643.001,259.823,647.251z
	 M273.228,630.929c-5.263-0.878-9.406-2.979-13.259-5.396c2.956-4.747,6.692-8.777,9.166-13.967
	c4.674,0.954,6.471,5.047,11.635,5.468C280.445,623.671,274.437,625.1,273.228,630.929z M285.458,612.488
	c-4.916-1.07-7.774-4.383-12.718-5.421c2.945-9.611,9.017-7.114,16.159-2.87C290.417,607.691,285.729,609.007,285.458,612.488z
	 M280.844,593.689c3.565-9.509,9.173-16.065,20.754-9.583c-2.188,5.974-5.684,10.745-8.531,16.11
	C288.88,598.165,284.946,595.836,280.844,593.689z M298.175,617.908c-1.389,0.003-2.596-0.196-3.297-0.943
	c1.874-3.32,5.314-9.856,9.046-4.191C302.576,615.006,299.348,615.514,298.175,617.908z M315.299,624.767
	c-3.106-2.099-7.879-2.378-11.047-4.408c0.898-2.646,3.882-3.377,4.618-6.171c3.716,2.002,8.257,3.102,12.154,4.903
	C319.551,621.382,316.83,622.526,315.299,624.767z M333.977,629.928c-4.327-1.145-8.912-2.007-12.648-3.796
	c2.052-7.946,11.718-3.884,17.29-1.833C337.706,626.757,335.502,628.033,333.977,629.928z M356.47,635.468
	c-5.357-1.723-11.899-2.152-17.006-4.148c2.784-8.509,12.546-2.99,19.976-2.494C358.582,631.16,358.65,634.346,356.47,635.468z
	 M379.907,637.711c-6.054,2.25-11.102-0.993-16.865-0.9c-0.481-2.694,0.321-4.215,0.261-6.522c6.105-0.229,9.666,2.318,16.346,1.463
	C380.884,633.754,379.587,635.145,379.907,637.711z M401.247,641.672c-6.694,0.493-11.274-1.321-17.43-1.418
	c-0.102-2.347-0.203-4.693-0.305-7.041c6.765-0.381,11.259,1.718,18.491,0.827C402.754,637.505,401.502,639.132,401.247,641.672z
	 M407.818,643.016c-1.186-1.732-0.529-5.475-0.893-8.104c5.568,0.171,11.283,0.18,16.324,0.924c0.052,2.646,0.538,5.695-0.214,7.606
	C416.908,644.451,413.945,642.009,407.818,643.016z"/>
</svg>
