<?xml version="1.0"?>
<svg xmlns="http://www.w3.org/2000/svg" xmlns:xlink="http://www.w3.org/1999/xlink" version="1.1" id="Capa_1" x="0px" y="0px" width="512px" height="512px" viewBox="0 0 43.489 43.489" style="enable-background:new 0 0 43.489 43.489;" xml:space="preserve" class=""><g><g>
	<path d="M25.508,27.616c0,0.608-1.235,1.104-2.759,1.104c-1.525,0-2.76-0.494-2.76-1.104c0-0.611,1.235-1.104,2.76-1.104   C24.271,26.514,25.508,27.005,25.508,27.616z M16.249,20.866c-1.197,0-2.173,0.976-2.173,2.176c0,1.197,0.976,2.172,2.173,2.172   c1.199,0,2.175-0.975,2.175-2.172C18.424,21.842,17.449,20.866,16.249,20.866z M29.246,20.866c-1.198,0-2.175,0.976-2.175,2.176   c0,1.197,0.977,2.172,2.175,2.172c1.197,0,2.173-0.975,2.173-2.172C31.419,21.842,30.443,20.866,29.246,20.866z M43.489,26.395   c0,2.861-1.786,5.295-4.25,6.138c-3.158,6.004-9.468,9.879-16.462,9.879c-6.989,0-13.289-3.863-16.448-9.854   c-2.502-0.816-4.323-3.271-4.323-6.16c0-2.068,0.935-3.914,2.382-5.098c0.129-1.163,0.336-2.439,0.631-3.64   c-2.64-0.896-4.34-1.764-4.482-1.84c-0.355-0.186-0.566-0.565-0.534-0.967c0.032-0.4,0.302-0.742,0.683-0.869   c0.035-0.012,3.486-1.182,7.547-4.586c0.76-0.637,1.511-1.334,2.236-2.008c3.307-3.067,6.727-6.24,13.063-6.309l0.429-0.002   c3.878,0,6.299,0.702,7.805,4.287c0.159-0.102,0.321-0.196,0.496-0.277c3.234-1.508,7.607,1.027,9.77,5.66   c1.896,4.068-0.857,10.544-0.852,10.604C42.585,22.538,43.489,24.355,43.489,26.395z M39.489,26.395   c0-1.271-0.845-2.305-1.933-2.428c-0.313,0.514-0.664,1.01-1.059,1.482c0.312-1.066,0.512-2.158,0.589-3.249   c-2.573-0.468-5.237-2.692-6.776-5.995c-0.059-0.123-0.104-0.246-0.156-0.369c-1.223,0.761-2.758,1.507-4.665,2.257   c-2.693,1.061-5.688,1.598-8.897,1.598c-2.778,0-5.413-0.396-7.722-0.935c-0.214,0.896-0.378,1.877-0.487,2.824   c0.035,1.296,0.242,2.6,0.614,3.869c-0.395-0.475-0.745-0.969-1.057-1.482c-1.09,0.123-1.936,1.154-1.936,2.428   c0,1.354,0.956,2.449,2.146,2.449c0.297,0,0.578-0.067,0.836-0.188c1.943,5.67,7.377,9.756,13.788,9.756   c6.407,0,11.834-4.08,13.786-9.738c0.241,0.109,0.506,0.175,0.781,0.175C38.534,28.848,39.489,27.749,39.489,26.395z" data-original="#000000" class="active-path" data-old_color="#AEEFE4" fill="#C0FBF1"/>
</g></g> </svg>
