<?xml version="1.0"?>
<svg xmlns="http://www.w3.org/2000/svg" xmlns:xlink="http://www.w3.org/1999/xlink" version="1.1" id="Capa_1" x="0px" y="0px" viewBox="0 0 512 512" style="enable-background:new 0 0 512 512;" xml:space="preserve" width="512px" height="512px" class=""><g><g>
	<g>
		<path d="M328.389,49.173c-9.749-15.924-24.91-24.768-42.692-24.901c-10.4-0.097-20.695,2.88-29.696,8.524    c-9.031-5.653-19.286-8.613-29.699-8.524c-17.78,0.134-32.941,8.978-42.69,24.901c-9.915,16.194-10.23,36.109-0.845,53.273    c6.707,12.265,16.899,21.856,25.892,30.318c1.487,1.399,2.96,2.785,4.399,4.166c5.561,5.34,11.145,10.444,16.545,15.382    c5.267,4.814,10.713,9.794,16.009,14.879L256,177.166l10.389-9.976c5.296-5.085,10.742-10.064,16.009-14.879    c5.4-4.938,10.983-10.042,16.545-15.382c1.438-1.381,2.911-2.767,4.398-4.166c8.993-8.462,19.185-18.053,25.893-30.317    C338.62,85.283,338.304,65.368,328.389,49.173z M302.911,88.053c-4.419,8.08-12.406,15.595-20.13,22.863    c-1.561,1.47-3.109,2.926-4.619,4.376c-5.296,5.085-10.742,10.064-16.009,14.879c-2.03,1.855-4.085,3.734-6.155,5.642    c-2.07-1.907-4.126-3.786-6.155-5.642c-5.267-4.814-10.713-9.794-16.008-14.879c-1.51-1.45-3.058-2.906-4.619-4.376    c-7.724-7.269-15.711-14.783-20.13-22.863c-4.29-7.847-4.251-16.091,0.11-23.215c4.379-7.152,9.886-10.51,17.328-10.566    c4.717-0.078,9.432,1.351,13.679,4.029L256,68.198l15.836-9.921c4.157-2.622,8.809-4.005,13.464-4.005    c0.058,0,0.115,0,0.172,0.001c7.444,0.056,12.951,3.413,17.33,10.566C307.163,71.963,307.202,80.207,302.911,88.053z" data-original="#000000" class="active-path" data-old_color="#84E9F4" fill="#84E8F4"/>
	</g>
</g><g>
	<g>
		<path d="M439.78,300.805c13.184-14.908,21.211-34.478,21.211-55.897c0-46.589-37.902-84.491-84.491-84.491    s-84.491,37.902-84.491,84.491c0,21.419,8.027,40.989,21.211,55.897c-23.745,4.299-44.202,18.165-57.22,37.449    c-13.017-19.284-33.475-33.15-57.22-37.449c13.184-14.908,21.21-34.478,21.21-55.897c0-46.589-37.902-84.491-84.491-84.491    s-84.491,37.902-84.491,84.491c0,21.419,8.027,40.989,21.211,55.897C31.205,308.231,0,344.201,0,387.324v100.407h241h30h241    V387.324C512,344.201,480.795,308.231,439.78,300.805z M135.5,190.416c30.046,0,54.491,24.444,54.491,54.491    c0,30.046-24.444,54.49-54.491,54.49s-54.491-24.444-54.491-54.49C81.009,214.861,105.454,190.416,135.5,190.416z M241,457.732H30    v-70.407c0-31.94,25.985-57.927,57.926-57.927h95.148c31.94,0,57.926,25.986,57.926,57.927V457.732z M376.5,190.416    c30.046,0,54.491,24.444,54.491,54.491c0,30.046-24.444,54.49-54.491,54.49c-30.046,0-54.491-24.444-54.491-54.49    C322.009,214.861,346.454,190.416,376.5,190.416z M482,457.732H271v-70.407c0-31.94,25.985-57.927,57.926-57.927h95.148    c31.94,0,57.926,25.986,57.926,57.927V457.732z" data-original="#000000" class="active-path" data-old_color="#84E9F4" fill="#84E8F4"/>
	</g>
</g></g> </svg>
