<?xml version="1.0" encoding="iso-8859-1"?>
<!-- Generator: Adobe Illustrator 19.0.0, SVG Export Plug-In . SVG Version: 6.00 Build 0)  -->
<svg version="1.1" id="Layer_1" xmlns="http://www.w3.org/2000/svg" xmlns:xlink="http://www.w3.org/1999/xlink" x="0px" y="0px"
	 viewBox="0 0 511.999 511.999" style="enable-background:new 0 0 511.999 511.999;" xml:space="preserve">
<g>
	<g>
		<path d="M492.261,281.719c-3.694-59.853-29.761-115.607-73.4-156.991c-41.198-39.069-94.403-61.78-150.815-64.617V44.395
			c0-6.657-5.396-12.053-12.053-12.053c-6.656,0-12.053,5.396-12.053,12.053v15.716c-56.38,2.835-109.562,25.525-150.749,64.551
			C49.564,166,23.478,221.705,19.739,281.516c-0.282,4.522,1.994,8.82,5.895,11.126c3.899,2.307,8.764,2.231,12.589-0.195
			c14.643-9.286,31.605-14.194,49.052-14.194c24.362,0,47.278,9.421,64.573,26.537c2.353,2.581,5.613,3.929,8.91,3.929
			c2.331,0,4.68-0.675,6.738-2.063l0.212-0.143c0.083-0.057,0.166-0.113,0.247-0.172c22.185-15.795,47.801-25.169,74.751-27.495
			v185.071c0,26.513,21.57,48.083,48.083,48.083s48.083-21.57,48.083-48.083c0-6.657-5.396-12.053-12.053-12.053
			c-6.656,0-12.053,5.396-12.053,12.053c0,13.221-10.756,23.977-23.977,23.977s-23.977-10.756-23.977-23.977V278.643
			c27.946,1.941,54.484,11.385,77.313,27.639c4.784,3.407,11.329,2.867,15.495-1.278c17.327-17.251,40.336-26.753,64.791-26.753
			c17.55,0,34.611,4.969,49.333,14.368c3.823,2.442,8.693,2.529,12.601,0.228C490.254,290.547,492.54,286.246,492.261,281.719z
			 M148.158,271.396c-18.118-11.224-39.034-17.249-60.882-17.249c-14.137,0-28.026,2.555-41.055,7.489
			c7.502-45.505,29.618-87.325,63.549-119.476c25.267-23.941,55.562-41.025,88.363-50.269c-7.732,9.55-14.852,21.116-21.188,34.576
			C158.547,165.549,148.346,216.966,148.158,271.396z M256.004,254.147c-29.572,0-58.139,7.262-83.733,21.143
			c-0.005-0.787-0.016-1.573-0.016-2.361c0-51.523,9.412-99.892,26.5-136.198c15.547-33.03,36.077-52.283,56.337-52.825
			c0.293-0.007,0.599-0.006,0.9-0.006c0.303,0,0.606-0.001,0.914,0.007c20.242,0.54,40.767,19.793,56.314,52.823
			c17.089,36.307,26.5,84.677,26.5,136.199c0,0.875,0.061,1.646,0.159,2.354C314.29,261.409,285.675,254.147,256.004,254.147z
			 M424.41,254.147c-21.727,0-42.539,5.963-60.594,17.074c-0.21-54.364-10.409-105.712-28.785-144.755
			c-6.336-13.462-13.456-25.028-21.188-34.578c32.829,9.252,63.149,26.357,88.432,50.332c33.928,32.175,56.031,74.017,63.51,119.539
			C452.658,256.744,438.66,254.147,424.41,254.147z"/>
	</g>
</g>
<g>
	<g>
		<path d="M355.649,10.721c-6.656,0-12.053,5.396-12.053,12.053v21.443c0,6.656,5.397,12.053,12.053,12.053
			c6.656,0,12.053-5.396,12.053-12.053V22.774C367.702,16.117,362.304,10.721,355.649,10.721z"/>
	</g>
</g>
<g>
	<g>
		<path d="M475.179,97.436c-6.656,0-12.053,5.396-12.053,12.053v21.442c0,6.657,5.397,12.053,12.053,12.053
			c6.656,0,12.053-5.396,12.053-12.053v-21.442C487.232,102.832,481.835,97.436,475.179,97.436z"/>
	</g>
</g>
<g>
	<g>
		<path d="M31.768,128.372c-6.657,0-12.053,5.396-12.053,12.053v21.442c0,6.657,5.397,12.053,12.053,12.053
			c6.656,0,12.053-5.396,12.053-12.053v-21.442C43.821,133.768,38.424,128.372,31.768,128.372z"/>
	</g>
</g>
<g>
	<g>
		<path d="M133.263,0c-6.657,0-12.053,5.396-12.053,12.053v21.443c0,6.656,5.397,12.053,12.053,12.053s12.053-5.396,12.053-12.053
			V12.053C145.316,5.396,139.918,0,133.263,0z"/>
	</g>
</g>
<g>
</g>
<g>
</g>
<g>
</g>
<g>
</g>
<g>
</g>
<g>
</g>
<g>
</g>
<g>
</g>
<g>
</g>
<g>
</g>
<g>
</g>
<g>
</g>
<g>
</g>
<g>
</g>
<g>
</g>
</svg>
